{
  "accessors": [
    {
      "bufferView": 3,
      "componentType": 5126,
      "count": 2034,
      "max": [
        1.4489201307296753,
        5.931039333343506,
        0.6447967290878296
      ],
      "min": [
        -1.4489201307296753,
        -0.4494290351867676,
        -0.7857666015625
      ],
      "type": "VEC3"
    },
    {
      "bufferView": 3,
      "byteOffset": 24408,
      "componentType": 5126,
      "count": 2034,
      "max": [
        1.0,
        1.0,
        1.0
      ],
      "min": [
        -1.0,
        -1.0,
        -1.0
      ],
      "type": "VEC3"
    },
    {
      "bufferView": 2,
      "componentType": 5126,
      "count": 2034,
      "max": [
        0.9980079531669617,
        0.9945240020751953
      ],
      "min": [
        0.0019920319318771362,
        0.001985077979043126
      ],
      "type": "VEC2"
    },
    {
      "bufferView": 1,
      "componentType": 5125,
      "count": 3504,
      "type": "SCALAR"
    },
    {
      "bufferView": 5,
      "componentType": 5126,
      "count": 25,
      "max": [
        1.0,
        0.9996539354324341,
        2.112442643920076e-06,
        0.0,
        1.0,
        1.0,
        5.647603416036873e-07,
        0.0,
        1.1511707498357282e-06,
        1.9563672140066046e-06,
        1.0,
        0.0,
        4.4932708740234375,
        0.5884214639663696,
        0.16178619861602783,
        1.0
      ],
      "min": [
        -0.9730001091957092,
        -1.0,
        -2.112442643920076e-06,
        0.0,
        -0.997199296951294,
        6.123234262925839e-17,
        -5.436869514596765e-07,
        0.0,
        -2.112442643920076e-06,
        -5.647607963510382e-07,
        -1.0,
        0.0,
        -5.034127235412598,
        -5.598269939422607,
        -0.24962100386619568,
        1.0
      ],
      "type": "MAT4"
    },
    {
      "bufferView": 0,
      "componentType": 5123,
      "count": 2034,
      "type": "VEC4"
    },
    {
      "bufferView": 4,
      "componentType": 5126,
      "count": 2034,
      "max": [
        1.0,
        0.4987775385379791,
        0.3305472731590271,
        0.16125769913196564
      ],
      "min": [
        0.3097389340400696,
        0.0,
        0.0,
        0.0
      ],
      "type": "VEC4"
    },
    {
      "bufferView": 6,
      "componentType": 5126,
      "count": 42,
      "max": [
        1.4666666984558105
      ],
      "min": [
        0.03333333507180214
      ],
      "type": "SCALAR"
    },
    {
      "bufferView": 7,
      "componentType": 5126,
      "count": 42,
      "max": [
        0.35924601554870605,
        3.94666965775059e-10,
        -0.05465373024344444
      ],
      "min": [
        0.35924601554870605,
        3.9466563350742945e-10,
        -0.05465373024344444
      ],
      "type": "VEC3"
    },
    {
      "bufferView": 6,
      "byteOffset": 168,
      "componentType": 5126,
      "count": 44,
      "max": [
        1.4666666984558105
      ],
      "min": [
        0.03333333507180214
      ],
      "type": "SCALAR"
    },
    {
      "bufferView": 8,
      "componentType": 5126,
      "count": 44,
      "max": [
        -0.6043054461479187,
        0.7967527508735657,
        5.775992129031238e-09,
        -4.380861007291514e-09
      ],
      "min": [
        -0.6043054461479187,
        0.7967527508735657,
        5.775992129031238e-09,
        -4.380861451380724e-09
      ],
      "type": "VEC4"
    },
    {
      "bufferView": 6,
      "byteOffset": 344,
      "componentType": 5126,
      "count": 34,
      "max": [
        1.4666666984558105
      ],
      "min": [
        0.03333333507180214
      ],
      "type": "SCALAR"
    },
    {
      "bufferView": 7,
      "byteOffset": 504,
      "componentType": 5126,
      "count": 34,
      "max": [
        1.070791482925415,
        1.928167403519865e-09,
        -0.2529686689376831
      ],
      "min": [
        1.070791482925415,
        1.9281660712522353e-09,
        -0.2529686689376831
      ],
      "type": "VEC3"
    },
    {
      "bufferView": 6,
      "byteOffset": 480,
      "componentType": 5126,
      "count": 44,
      "max": [
        1.4666666984558105
      ],
      "min": [
        0.03333333507180214
      ],
      "type": "SCALAR"
    },
    {
      "bufferView": 8,
      "byteOffset": 704,
      "componentType": 5126,
      "count": 44,
      "max": [
        1.5274494845255555e-16,
        1.432022024768947e-17,
        -0.015515643171966076,
        0.9998795986175537
      ],
      "min": [
        -1.4320512077009578e-16,
        -2.16620090125529e-17,
        -0.015515643171966076,
        0.9998795986175537
      ],
      "type": "VEC4"
    },
    {
      "bufferView": 6,
      "byteOffset": 656,
      "componentType": 5126,
      "count": 40,
      "max": [
        1.4666666984558105
      ],
      "min": [
        0.03333333507180214
      ],
      "type": "SCALAR"
    },
    {
      "bufferView": 7,
      "byteOffset": 912,
      "componentType": 5126,
      "count": 40,
      "max": [
        0.9236271977424622,
        -3.8580383332487145e-10,
        0.06089985370635986
      ],
      "min": [
        0.9236271977424622,
        -3.85805165592501e-10,
        0.06089985370635986
      ],
      "type": "VEC3"
    },
    {
      "bufferView": 6,
      "byteOffset": 816,
      "componentType": 5126,
      "count": 44,
      "max": [
        1.4666666984558105
      ],
      "min": [
        0.03333333507180214
      ],
      "type": "SCALAR"
    },
    {
      "bufferView": 8,
      "byteOffset": 1408,
      "componentType": 5126,
      "count": 44,
      "max": [
        -0.010485013946890831,
        -0.14836254715919495,
        0.0008708314853720367,
        0.9888770580291748
      ],
      "min": [
        -0.010485013946890831,
        -0.14836254715919495,
        0.0008708314853720367,
        0.9888770580291748
      ],
      "type": "VEC4"
    },
    {
      "bufferView": 6,
      "byteOffset": 992,
      "componentType": 5126,
      "count": 4,
      "max": [
        1.4666666984558105
      ],
      "min": [
        0.03333333507180214
      ],
      "type": "SCALAR"
    },
    {
      "bufferView": 7,
      "byteOffset": 1392,
      "componentType": 5126,
      "count": 4,
      "max": [
        0.3139413297176361,
        8.400382611739587e-10,
        -0.0645284503698349
      ],
      "min": [
        0.3139413297176361,
        8.400378170847489e-10,
        -0.0645284503698349
      ],
      "type": "VEC3"
    },
    {
      "bufferView": 6,
      "byteOffset": 1008,
      "componentType": 5126,
      "count": 44,
      "max": [
        1.4666666984558105
      ],
      "min": [
        0.03333333507180214
      ],
      "type": "SCALAR"
    },
    {
      "bufferView": 8,
      "byteOffset": 2112,
      "componentType": 5126,
      "count": 44,
      "max": [
        0.25183653831481934,
        -0.2794139087200165,
        -0.48990461230278015,
        0.6793166995048523
      ],
      "min": [
        0.15801675617694855,
        -0.5024616718292236,
        -0.6599778532981873,
        0.6664113402366638
      ],
      "type": "VEC4"
    },
    {
      "bufferView": 6,
      "byteOffset": 1184,
      "componentType": 5126,
      "count": 19,
      "max": [
        1.2666666507720947
      ],
      "min": [
        0.03333333507180214
      ],
      "type": "SCALAR"
    },
    {
      "bufferView": 8,
      "byteOffset": 2816,
      "componentType": 5126,
      "count": 19,
      "max": [
        0.4628005623817444,
        -0.2785126864910126,
        0.6905530095100403,
        0.5608268976211548
      ],
      "min": [
        0.36199507117271423,
        -0.3560706675052643,
        0.630164623260498,
        0.5117830038070679
      ],
      "type": "VEC4"
    },
    {
      "bufferView": 6,
      "byteOffset": 1260,
      "componentType": 5126,
      "count": 44,
      "max": [
        1.4666666984558105
      ],
      "min": [
        0.03333333507180214
      ],
      "type": "SCALAR"
    },
    {
      "bufferView": 8,
      "byteOffset": 3120,
      "componentType": 5126,
      "count": 44,
      "max": [
        -0.6043054461479187,
        0.7967527508735657,
        8.395154793561233e-09,
        -6.367392391126714e-09
      ],
      "min": [
        -0.6043054461479187,
        0.7967527508735657,
        8.395154793561233e-09,
        -6.367392391126714e-09
      ],
      "type": "VEC4"
    },
    {
      "bufferView": 6,
      "byteOffset": 1436,
      "componentType": 5126,
      "count": 44,
      "max": [
        1.4666666984558105
      ],
      "min": [
        0.03333333507180214
      ],
      "type": "SCALAR"
    },
    {
      "bufferView": 8,
      "byteOffset": 3824,
      "componentType": 5126,
      "count": 44,
      "max": [
        1.3182311554136612e-16,
        5.2546830392165845e-17,
        -0.015515643171966076,
        0.9998795986175537
      ],
      "min": [
        -9.51291519579423e-17,
        -4.302795023153837e-17,
        -0.015515643171966076,
        0.9998795986175537
      ],
      "type": "VEC4"
    },
    {
      "bufferView": 6,
      "byteOffset": 1612,
      "componentType": 5126,
      "count": 44,
      "max": [
        1.4666666984558105
      ],
      "min": [
        0.03333333507180214
      ],
      "type": "SCALAR"
    },
    {
      "bufferView": 8,
      "byteOffset": 4528,
      "componentType": 5126,
      "count": 44,
      "max": [
        -0.051602113991975784,
        -0.11380283534526825,
        0.09541910141706467,
        0.9881273508071899
      ],
      "min": [
        -0.0601935088634491,
        -0.13631363213062286,
        0.08938939869403839,
        0.9842207431793213
      ],
      "type": "VEC4"
    },
    {
      "bufferView": 6,
      "byteOffset": 1788,
      "componentType": 5126,
      "count": 44,
      "max": [
        1.4666666984558105
      ],
      "min": [
        0.03333333507180214
      ],
      "type": "SCALAR"
    },
    {
      "bufferView": 8,
      "byteOffset": 5232,
      "componentType": 5126,
      "count": 44,
      "max": [
        -0.1331278383731842,
        0.36038678884506226,
        -0.7280229926109314,
        0.6330326199531555
      ],
      "min": [
        -0.29070696234703064,
        0.19731983542442322,
        -0.7371195554733276,
        0.5055623650550842
      ],
      "type": "VEC4"
    },
    {
      "bufferView": 6,
      "byteOffset": 1964,
      "componentType": 5126,
      "count": 44,
      "max": [
        1.4666666984558105
      ],
      "min": [
        0.03333333507180214
      ],
      "type": "SCALAR"
    },
    {
      "bufferView": 8,
      "byteOffset": 5936,
      "componentType": 5126,
      "count": 44,
      "max": [
        -0.4207479953765869,
        0.9071775674819946,
        9.934149312675224e-17,
        1.1389071336394334e-16
      ],
      "min": [
        -0.4207479953765869,
        0.9071775674819946,
        -3.8031451768195514e-17,
        -5.841492617182368e-19
      ],
      "type": "VEC4"
    },
    {
      "bufferView": 6,
      "byteOffset": 2140,
      "componentType": 5126,
      "count": 44,
      "max": [
        1.4666666984558105
      ],
      "min": [
        0.03333333507180214
      ],
      "type": "SCALAR"
    },
    {
      "bufferView": 8,
      "byteOffset": 6640,
      "componentType": 5126,
      "count": 44,
      "max": [
        0.14597278833389282,
        0.16904640197753906,
        0.4429389238357544,
        0.9648358821868896
      ],
      "min": [
        -0.09574171155691147,
        -0.4329858720302582,
        0.08881837874650955,
        0.8290912508964539
      ],
      "type": "VEC4"
    },
    {
      "bufferView": 6,
      "byteOffset": 2316,
      "componentType": 5126,
      "count": 41,
      "max": [
        1.4666666984558105
      ],
      "min": [
        0.03333333507180214
      ],
      "type": "SCALAR"
    },
    {
      "bufferView": 7,
      "byteOffset": 1440,
      "componentType": 5126,
      "count": 41,
      "max": [
        1.4181334972381592,
        3.3306690738754696e-16,
        -0.04693906009197235
      ],
      "min": [
        1.4181334972381592,
        -2.220446049250313e-16,
        -0.04693906009197235
      ],
      "type": "VEC3"
    },
    {
      "bufferView": 6,
      "byteOffset": 2480,
      "componentType": 5126,
      "count": 44,
      "max": [
        1.4666666984558105
      ],
      "min": [
        0.03333333507180214
      ],
      "type": "SCALAR"
    },
    {
      "bufferView": 8,
      "byteOffset": 7344,
      "componentType": 5126,
      "count": 44,
      "max": [
        0.21305997669696808,
        0.9201764464378357,
        0.0882847011089325,
        0.9138579964637756
      ],
      "min": [
        -0.15715301036834717,
        -0.8351807594299316,
        -0.10095205903053284,
        -0.47019773721694946
      ],
      "type": "VEC4"
    },
    {
      "bufferView": 6,
      "byteOffset": 2656,
      "componentType": 5126,
      "count": 44,
      "max": [
        1.4666666984558105
      ],
      "min": [
        0.03333333507180214
      ],
      "type": "SCALAR"
    },
    {
      "bufferView": 8,
      "byteOffset": 8048,
      "componentType": 5126,
      "count": 44,
      "max": [
        0.15706683695316315,
        0.9275265336036682,
        0.13447213172912598,
        0.9852167963981628
      ],
      "min": [
        -0.08439651131629944,
        -0.854899525642395,
        -0.17005987465381622,
        -0.48440447449684143
      ],
      "type": "VEC4"
    },
    {
      "bufferView": 6,
      "byteOffset": 2832,
      "componentType": 5126,
      "count": 44,
      "max": [
        1.4666666984558105
      ],
      "min": [
        0.03333333507180214
      ],
      "type": "SCALAR"
    },
    {
      "bufferView": 8,
      "byteOffset": 8752,
      "componentType": 5126,
      "count": 44,
      "max": [
        -0.4207479953765869,
        0.9071775674819946,
        1.0518054121842936e-16,
        1.2018551812080248e-16
      ],
      "min": [
        -0.4207479953765869,
        0.9071775674819946,
        -5.554860596939423e-17,
        -6.353223560440083e-17
      ],
      "type": "VEC4"
    },
    {
      "bufferView": 6,
      "byteOffset": 3008,
      "componentType": 5126,
      "count": 44,
      "max": [
        1.4666666984558105
      ],
      "min": [
        0.03333333507180214
      ],
      "type": "SCALAR"
    },
    {
      "bufferView": 8,
      "byteOffset": 9456,
      "componentType": 5126,
      "count": 44,
      "max": [
        -0.017584022134542465,
        0.3497786819934845,
        0.38404378294944763,
        0.9589617252349854
      ],
      "min": [
        -0.2992298901081085,
        -0.4565894603729248,
        0.11238531023263931,
        0.7579923272132874
      ],
      "type": "VEC4"
    },
    {
      "bufferView": 6,
      "byteOffset": 3184,
      "componentType": 5126,
      "count": 44,
      "max": [
        1.4666666984558105
      ],
      "min": [
        0.03333333507180214
      ],
      "type": "SCALAR"
    },
    {
      "bufferView": 8,
      "byteOffset": 10160,
      "componentType": 5126,
      "count": 44,
      "max": [
        0.07746118307113647,
        0.938109278678894,
        0.15530548989772797,
        0.9555349349975586
      ],
      "min": [
        -0.18662840127944946,
        -0.8570302724838257,
        -0.05176522582769394,
        -0.4603944420814514
      ],
      "type": "VEC4"
    },
    {
      "bufferView": 6,
      "byteOffset": 3360,
      "componentType": 5126,
      "count": 44,
      "max": [
        1.4666666984558105
      ],
      "min": [
        0.03333333507180214
      ],
      "type": "SCALAR"
    },
    {
      "bufferView": 8,
      "byteOffset": 10864,
      "componentType": 5126,
      "count": 44,
      "max": [
        0.020990576595067978,
        0.9450483918190002,
        0.1556748002767563,
        0.9646162390708923
      ],
      "min": [
        -0.4593857526779175,
        -0.8633121848106384,
        -0.17603172361850739,
        -0.495584100484848
      ],
      "type": "VEC4"
    },
    {
      "bufferView": 6,
      "byteOffset": 3536,
      "componentType": 5126,
      "count": 43,
      "max": [
        1.4666666984558105
      ],
      "min": [
        0.03333333507180214
      ],
      "type": "SCALAR"
    },
    {
      "bufferView": 7,
      "byteOffset": 1932,
      "componentType": 5126,
      "count": 43,
      "max": [
        0.0,
        3.2219228744506836,
        0.0
      ],
      "min": [
        0.0,
        2.7362449169158936,
        0.0
      ],
      "type": "VEC3"
    },
    {
      "bufferView": 6,
      "byteOffset": 3708,
      "componentType": 5126,
      "count": 43,
      "max": [
        1.4666666984558105
      ],
      "min": [
        0.03333333507180214
      ],
      "type": "SCALAR"
    },
    {
      "bufferView": 7,
      "byteOffset": 2448,
      "componentType": 5126,
      "count": 43,
      "max": [
        -0.497433066368103,
        2.0806925296783447,
        1.2987570762634277
      ],
      "min": [
        -0.49745041131973267,
        0.8077617883682251,
        -2.664036512374878
      ],
      "type": "VEC3"
    },
    {
      "bufferView": 6,
      "byteOffset": 3880,
      "componentType": 5126,
      "count": 43,
      "max": [
        1.4666666984558105
      ],
      "min": [
        0.03333333507180214
      ],
      "type": "SCALAR"
    },
    {
      "bufferView": 7,
      "byteOffset": 2964,
      "componentType": 5126,
      "count": 43,
      "max": [
        0.49743589758872986,
        1.909063458442688,
        1.0615675449371338
      ],
      "min": [
        0.4974246025085449,
        0.8981881141662598,
        -2.653766632080078
      ],
      "type": "VEC3"
    }
  ],
  "animations": [
    {
      "channels": [
        {
          "sampler": 0,
          "target": {
            "node": 16,
            "path": "translation"
          }
        },
        {
          "sampler": 1,
          "target": {
            "node": 16,
            "path": "rotation"
          }
        },
        {
          "sampler": 2,
          "target": {
            "node": 15,
            "path": "translation"
          }
        },
        {
          "sampler": 3,
          "target": {
            "node": 15,
            "path": "rotation"
          }
        },
        {
          "sampler": 4,
          "target": {
            "node": 14,
            "path": "translation"
          }
        },
        {
          "sampler": 5,
          "target": {
            "node": 14,
            "path": "rotation"
          }
        },
        {
          "sampler": 6,
          "target": {
            "node": 13,
            "path": "translation"
          }
        },
        {
          "sampler": 7,
          "target": {
            "node": 13,
            "path": "rotation"
          }
        },
        {
          "sampler": 8,
          "target": {
            "node": 17,
            "path": "rotation"
          }
        },
        {
          "sampler": 9,
          "target": {
            "node": 23,
            "path": "rotation"
          }
        },
        {
          "sampler": 10,
          "target": {
            "node": 22,
            "path": "rotation"
          }
        },
        {
          "sampler": 11,
          "target": {
            "node": 21,
            "path": "rotation"
          }
        },
        {
          "sampler": 12,
          "target": {
            "node": 20,
            "path": "rotation"
          }
        },
        {
          "sampler": 13,
          "target": {
            "node": 27,
            "path": "rotation"
          }
        },
        {
          "sampler": 14,
          "target": {
            "node": 26,
            "path": "rotation"
          }
        },
        {
          "sampler": 15,
          "target": {
            "node": 25,
            "path": "translation"
          }
        },
        {
          "sampler": 16,
          "target": {
            "node": 25,
            "path": "rotation"
          }
        },
        {
          "sampler": 17,
          "target": {
            "node": 24,
            "path": "rotation"
          }
        },
        {
          "sampler": 18,
          "target": {
            "node": 31,
            "path": "rotation"
          }
        },
        {
          "sampler": 19,
          "target": {
            "node": 30,
            "path": "rotation"
          }
        },
        {
          "sampler": 20,
          "target": {
            "node": 29,
            "path": "rotation"
          }
        },
        {
          "sampler": 21,
          "target": {
            "node": 28,
            "path": "rotation"
          }
        },
        {
          "sampler": 22,
          "target": {
            "node": 8,
            "path": "translation"
          }
        },
        {
          "sampler": 23,
          "target": {
            "node": 35,
            "path": "translation"
          }
        },
        {
          "sampler": 24,
          "target": {
            "node": 36,
            "path": "translation"
          }
        }
      ],
      "name": "Take 001",
      "samplers": [
        {
          "input": 7,
          "interpolation": "LINEAR",
          "output": 8
        },
        {
          "input": 9,
          "interpolation": "LINEAR",
          "output": 10
        },
        {
          "input": 11,
          "interpolation": "LINEAR",
          "output": 12
        },
        {
          "input": 13,
          "interpolation": "LINEAR",
          "output": 14
        },
        {
          "input": 15,
          "interpolation": "LINEAR",
          "output": 16
        },
        {
          "input": 17,
          "interpolation": "LINEAR",
          "output": 18
        },
        {
          "input": 19,
          "interpolation": "LINEAR",
          "output": 20
        },
        {
          "input": 21,
          "interpolation": "LINEAR",
          "output": 22
        },
        {
          "input": 23,
          "interpolation": "LINEAR",
          "output": 24
        },
        {
          "input": 25,
          "interpolation": "LINEAR",
          "output": 26
        },
        {
          "input": 27,
          "interpolation": "LINEAR",
          "output": 28
        },
        {
          "input": 29,
          "interpolation": "LINEAR",
          "output": 30
        },
        {
          "input": 31,
          "interpolation": "LINEAR",
          "output": 32
        },
        {
          "input": 33,
          "interpolation": "LINEAR",
          "output": 34
        },
        {
          "input": 35,
          "interpolation": "LINEAR",
          "output": 36
        },
        {
          "input": 37,
          "interpolation": "LINEAR",
          "output": 38
        },
        {
          "input": 39,
          "interpolation": "LINEAR",
          "output": 40
        },
        {
          "input": 41,
          "interpolation": "LINEAR",
          "output": 42
        },
        {
          "input": 43,
          "interpolation": "LINEAR",
          "output": 44
        },
        {
          "input": 45,
          "interpolation": "LINEAR",
          "output": 46
        },
        {
          "input": 47,
          "interpolation": "LINEAR",
          "output": 48
        },
        {
          "input": 49,
          "interpolation": "LINEAR",
          "output": 50
        },
        {
          "input": 51,
          "interpolation": "LINEAR",
          "output": 52
        },
        {
          "input": 53,
          "interpolation": "LINEAR",
          "output": 54
        },
        {
          "input": 55,
          "interpolation": "LINEAR",
          "output": 56
        }
      ]
    }
  ],
  "asset": {
    "extras": {
      "author": "James.Driessche (https://sketchfab.com/James.Driessche)",
      "license": "CC-BY-4.0 (http://creativecommons.org/licenses/by/4.0/)",
      "source": "https://sketchfab.com/3d-models/diaper-zombierun-0f142eaa4ab94740ba9e5d074f306a15",
      "title": "Diaper Zombie(run)"
    },
    "generator": "Sketchfab-12.65.0",
    "version": "2.0"
  },
  "bufferViews": [
    {
      "buffer": 0,
      "byteLength": 16272,
      "byteStride": 8,
      "name": "shortBufferViews",
      "target": 34962
    },
    {
      "buffer": 0,
      "byteLength": 14016,
      "byteOffset": 16272,
      "name": "floatBufferViews",
      "target": 34963
    },
    {
      "buffer": 0,
      "byteLength": 16272,
      "byteOffset": 30288,
      "byteStride": 8,
      "name": "floatBufferViews",
      "target": 34962
    },
    {
      "buffer": 0,
      "byteLength": 48816,
      "byteOffset": 46560,
      "byteStride": 12,
      "name": "floatBufferViews",
      "target": 34962
    },
    {
      "buffer": 0,
      "byteLength": 32544,
      "byteOffset": 95376,
      "byteStride": 16,
      "name": "floatBufferViews",
      "target": 34962
    },
    {
      "buffer": 0,
      "byteLength": 1600,
      "byteOffset": 127920,
      "name": "floatBufferViews"
    },
    {
      "buffer": 0,
      "byteLength": 4052,
      "byteOffset": 129520,
      "name": "floatBufferViews"
    },
    {
      "buffer": 0,
      "byteLength": 3480,
      "byteOffset": 133572,
      "byteStride": 12,
      "name": "floatBufferViews"
    },
    {
      "buffer": 0,
      "byteLength": 11568,
      "byteOffset": 137052,
      "byteStride": 16,
      "name": "floatBufferViews"
    }
  ],
  "buffers": [
    {
      "byteLength": 148620,
      "uri": "scene.bin"
    }
  ],
  "images": [
    {
      "uri": "textures/phong1_baseColor.png"
    }
  ],
  "materials": [
    {
      "doubleSided": true,
      "name": "phong1",
      "pbrMetallicRoughness": {
        "baseColorTexture": {
          "index": 0
        },
        "metallicFactor": 0.0
      }
    }
  ],
  "meshes": [
    {
      "name": "pCube1_phong1_0",
      "primitives": [
        {
          "attributes": {
            "JOINTS_0": 5,
            "NORMAL": 1,
            "POSITION": 0,
            "TEXCOORD_0": 2,
            "WEIGHTS_0": 6
          },
          "indices": 3,
          "material": 0,
          "mode": 4
        }
      ]
    }
  ],
  "nodes": [
    {
      "children": [
        1
      ],
      "matrix": [
        0.4565792977809906,
        0.0,
        0.0,
        0.0,
        0.0,
        1.0138096979272828e-16,
        -0.4565792977809906,
        0.0,
        0.0,
        0.4565792977809906,
        1.0138096979272828e-16,
        0.0,
        0.0,
        0.0,
        0.0,
        1.0
      ],
      "name": "Sketchfab_model"
    },
    {
      "children": [
        2
      ],
      "matrix": [
        1.0,
        0.0,
        0.0,
        0.0,
        0.0,
        0.0,
        1.0,
        0.0,
        0.0,
        -1.0,
        0.0,
        0.0,
        0.0,
        0.0,
        0.0,
        1.0
      ],
      "name": "41ecb5875bb045b6a2705554a5e3cfe0.fbx"
    },
    {
      "children": [
        3
      ],
      "name": "Object_2"
    },
    {
      "children": [
        4
      ],
      "name": "RootNode"
    },
    {
      "children": [
        5,
        7,
        6,
        32,
        33,
        34,
        35,
        36,
        37,
        38,
        39,
        40
      ],
      "name": "Object_4"
    },
    {
      "children": [
        8
      ],
      "name": "_rootJoint"
    },
    {
      "matrix": [
        1.0,
        0.0,
        0.0,
        0.0,
        0.0,
        1.0,
        0.0,
        0.0,
        0.0,
        0.0,
        1.0,
        0.0,
        -0.09803078137267152,
        5.25174900377527,
        0.0,
        1.0
      ],
      "name": "Object_6"
    },
    {
      "mesh": 0,
      "name": "Object_7",
      "skin": 0
    },
    {
      "children": [
        9,
        24,
        28
      ],
      "name": "joint1_00",
      "rotation": [
        0.41456010937690735,
        -0.41456010937690735,
        0.5728349685668945,
        0.5728349685668945
      ],
      "translation": [
        0.0,
        2.9897735118865967,
        0.0
      ]
    },
    {
      "children": [
        10
      ],
      "name": "joint2_01",
      "translation": [
        1.0,
        0.0,
        0.0
      ]
    },
    {
      "children": [
        11
      ],
      "name": "joint3_02",
      "rotation": [
        0.0,
        -0.0,
        -0.0029075914062559605,
        0.999995768070221
      ]
    },
    {
      "children": [
        12,
        17,
        19
      ],
      "name": "joint4_03",
      "rotation": [
        0.6178758144378662,
        0.7862756848335266,
        5.8582103612536685e-09,
        4.603533554359274e-09
      ],
      "translation": [
        0.45534515380859375,
        -8.550452013089682e-15,
        -0.16263405978679657
      ]
    },
    {
      "children": [
        13
      ],
      "name": "joint5_04",
      "rotation": [
        5.896139435811041e-17,
        -6.194850733180068e-18,
        0.2513633072376251,
        0.9678928256034851
      ],
      "translation": [
        0.5096081495285034,
        0.0,
        0.0
      ]
    },
    {
      "children": [
        14
      ],
      "name": "joint6_05",
      "rotation": [
        0.19540363550186157,
        -0.3871922194957733,
        -0.5944780111312866,
        0.677122950553894
      ],
      "translation": [
        0.3139413297176361,
        8.400382611739587e-10,
        -0.0645284503698349
      ]
    },
    {
      "children": [
        15
      ],
      "name": "joint7_06",
      "rotation": [
        -0.010485013015568256,
        -0.14836254715919495,
        0.0008708343375474215,
        0.9888770580291748
      ],
      "translation": [
        0.9236271977424622,
        -3.8580472150329115e-10,
        0.06089985370635986
      ]
    },
    {
      "children": [
        16
      ],
      "name": "joint8_07",
      "rotation": [
        -1.2033345771899636e-16,
        1.574673622742902e-17,
        -0.015515645034611225,
        0.9998797178268433
      ],
      "translation": [
        1.070791482925415,
        1.928166959430655e-09,
        -0.2529686689376831
      ]
    },
    {
      "name": "joint9_08",
      "rotation": [
        -0.6043054461479187,
        0.7967527508735657,
        5.775992129031238e-09,
        -4.380861007291514e-09
      ],
      "translation": [
        0.35924601554870605,
        3.946660775966393e-10,
        -0.05465373024344444
      ]
    },
    {
      "children": [
        18
      ],
      "name": "joint10_09",
      "rotation": [
        0.36199504137039185,
        -0.2785126864910126,
        0.6905530095100403,
        0.5608268976211548
      ],
      "translation": [
        -0.14400401711463928,
        0.5628306269645691,
        -0.0015097352443262935
      ]
    },
    {
      "name": "joint11_010",
      "rotation": [
        0.6977440118789673,
        0.7163472771644592,
        4.331139194023579e-17,
        4.3291460196195715e-17
      ],
      "translation": [
        0.5622561573982239,
        2.0228124730792274e-12,
        0.0006618034676648676
      ]
    },
    {
      "children": [
        20
      ],
      "name": "joint12_011",
      "rotation": [
        3.035278708142496e-17,
        -6.455477973402663e-18,
        0.2513633072376251,
        0.9678928256034851
      ],
      "translation": [
        -0.455314576625824,
        -0.22888608276844025,
        -3.4106690804946993e-09
      ]
    },
    {
      "children": [
        21
      ],
      "name": "joint13_012",
      "rotation": [
        -0.22017362713813782,
        0.26105085015296936,
        -0.7303462028503418,
        0.5915831327438354
      ],
      "translation": [
        -0.26755303144454956,
        0.1642366647720337,
        -0.0645284503698349
      ]
    },
    {
      "children": [
        22
      ],
      "name": "joint14_013",
      "rotation": [
        -0.051602110266685486,
        -0.11380282789468765,
        0.0893893912434578,
        0.9881273508071899
      ],
      "translation": [
        0.8461848497390747,
        -0.37021639943122864,
        0.060899849981069565
      ]
    },
    {
      "children": [
        23
      ],
      "name": "joint15_014",
      "rotation": [
        3.2686627548906576e-17,
        -1.785653978908432e-17,
        -0.015515645034611225,
        0.9998797178268433
      ],
      "translation": [
        0.87884920835495,
        -0.611733078956604,
        -0.2529686987400055
      ]
    },
    {
      "name": "joint16_015",
      "rotation": [
        -0.6043054461479187,
        0.7967527508735657,
        8.395154793561233e-09,
        -6.367392391126714e-09
      ],
      "translation": [
        0.3070087134838104,
        -0.1865580976009369,
        -0.05206036940217018
      ]
    },
    {
      "children": [
        25
      ],
      "name": "joint17_016",
      "rotation": [
        0.09595713764429092,
        -0.5003911852836609,
        0.12205582857131958,
        0.8517647981643677
      ],
      "translation": [
        -0.36401528120040894,
        0.2607753574848175,
        -0.1232074499130249
      ]
    },
    {
      "children": [
        26
      ],
      "name": "joint18_017",
      "rotation": [
        0.20046363770961761,
        0.9048773646354675,
        0.07410553097724915,
        -0.3681299090385437
      ],
      "translation": [
        1.4181334972381592,
        9.71445146547012e-17,
        -0.04693906009197235
      ]
    },
    {
      "children": [
        27
      ],
      "name": "joint19_018",
      "rotation": [
        0.03831911459565163,
        -0.32764431834220886,
        0.22307564318180084,
        0.9172884821891785
      ],
      "translation": [
        1.5260053873062134,
        -0.0032056376803666353,
        0.08436034619808197
      ]
    },
    {
      "name": "joint20_019",
      "rotation": [
        -0.4207479953765869,
        0.9071775674819946,
        8.182433561683107e-17,
        3.0889895305490344e-17
      ],
      "translation": [
        0.10502670705318451,
        -0.05980530008673668,
        -0.41024941205978394
      ]
    },
    {
      "children": [
        29
      ],
      "name": "joint21_020",
      "rotation": [
        -0.02358132228255272,
        -0.43771541118621826,
        0.05852286517620087,
        0.89689701795578
      ],
      "translation": [
        -0.3640199899673462,
        -0.26077499985694885,
        -0.12320700287818909
      ]
    },
    {
      "children": [
        30
      ],
      "name": "joint22_021",
      "rotation": [
        -0.005232684314250946,
        -0.6526671051979065,
        0.01993171125650406,
        0.7573645114898682
      ],
      "translation": [
        1.395831823348999,
        -0.25045835971832275,
        -0.04693859815597534
      ]
    },
    {
      "children": [
        31
      ],
      "name": "joint23_022",
      "rotation": [
        -0.18730603158473969,
        0.11430977284908295,
        0.18847662210464478,
        0.9572493433952332
      ],
      "translation": [
        1.5094166994094849,
        -0.22445081174373627,
        0.08436059951782227
      ]
    },
    {
      "name": "joint24_023",
      "rotation": [
        -0.4207479953765869,
        0.9071775674819946,
        8.474385966266963e-17,
        3.718470337107193e-17
      ],
      "translation": [
        0.07636411488056183,
        -0.09367971122264862,
        -0.4102500081062317
      ]
    },
    {
      "name": "pCube1",
      "translation": [
        -0.09803078323602676,
        5.251749038696289,
        0.0
      ]
    },
    {
      "name": "nurbsCircle1",
      "rotation": [
        0.7071068286895752,
        0.0,
        0.0,
        0.7071068286895752
      ],
      "scale": [
        0.17496079206466675,
        1.0,
        0.2703135907649994
      ],
      "translation": [
        -1.0505369901657104,
        3.7144367694854736,
        -1.5530776977539063
      ]
    },
    {
      "name": "nurbsCircle2",
      "rotation": [
        0.7071068286895752,
        0.0,
        0.0,
        0.7071068286895752
      ],
      "scale": [
        0.17496079206466675,
        1.0,
        0.2703135907649994
      ],
      "translation": [
        1.1176257133483887,
        3.7144367694854736,
        -1.5530776977539063
      ]
    },
    {
      "name": "ikHandle1",
      "translation": [
        -0.4974479675292969,
        1.9879664182662964,
        -0.8593112826347351
      ]
    },
    {
      "name": "ikHandle2",
      "translation": [
        0.49743029475212097,
        0.8981893062591553,
        0.11589568853378296
      ]
    },
    {
      "name": "ikHandle3",
      "translation": [
        1.2494556903839111,
        3.5241947174072266,
        -0.6538200378417969
      ]
    },
    {
      "name": "ikHandle4",
      "translation": [
        -1.2038896083831787,
        3.5841169357299805,
        -0.6631633043289185
      ]
    },
    {
      "name": "nurbsCircle4",
      "rotation": [
        0.7071068286895752,
        0.0,
        0.0,
        0.7071068286895752
      ],
      "scale": [
        0.27243301272392273,
        0.27243301272392273,
        0.27243301272392273
      ],
      "translation": [
        0.6066021919250488,
        1.9662007093429565,
        3.1193902492523193
      ]
    },
    {
      "name": "nurbsCircle5",
      "rotation": [
        0.7071068286895752,
        0.0,
        0.0,
        0.7071068286895752
      ],
      "scale": [
        0.27243301272392273,
        0.27243301272392273,
        0.27243301272392273
      ],
      "translation": [
        -0.5653767585754395,
        1.9662007093429565,
        3.1193902492523193
      ]
    }
  ],
  "samplers": [
    {
      "magFilter": 9729,
      "minFilter": 9987,
      "wrapS": 10497,
      "wrapT": 10497
    }
  ],
  "scene": 0,
  "scenes": [
    {
      "name": "Sketchfab_Scene",
      "nodes": [
        0
      ]
    }
  ],
  "skins": [
    {
      "inverseBindMatrices": 4,
      "joints": [
        5,
        8,
        9,
        10,
        11,
        12,
        13,
        14,
        15,
        16,
        17,
        18,
        19,
        20,
        21,
        22,
        23,
        24,
        25,
        26,
        27,
        28,
        29,
        30,
        31
      ],
      "skeleton": 5
    }
  ],
  "textures": [
    {
      "sampler": 0,
      "source": 0
    }
  ]
}
